<mxfile host="app.diagrams.net" modified="2021-07-15T23:45:32.467Z" agent="5.0 (Windows NT 10.0; Win64; x64) AppleWebKit/537.36 (KHTML, like Gecko) Chrome/91.0.4472.124 Safari/537.36 Edg/91.0.864.67" etag="-POa5DlLpx9imA25jwiV" version="14.8.4" type="github">
  <diagram id="WlcAnD_Suf2Jh-qgs0q-" name="Page-1">
    <mxGraphModel dx="652" dy="390" grid="1" gridSize="10" guides="1" tooltips="1" connect="1" arrows="1" fold="1" page="1" pageScale="1" pageWidth="827" pageHeight="1169" math="0" shadow="0">
      <root>
        <mxCell id="0" />
        <mxCell id="1" parent="0" />
        <mxCell id="hx0ZOnVBugZYrfQW6F_9-4" style="edgeStyle=orthogonalEdgeStyle;rounded=0;orthogonalLoop=1;jettySize=auto;html=1;exitX=0.5;exitY=0.5;exitDx=0;exitDy=0;exitPerimeter=0;" edge="1" parent="1" source="hx0ZOnVBugZYrfQW6F_9-1">
          <mxGeometry relative="1" as="geometry">
            <mxPoint x="190" y="190" as="targetPoint" />
          </mxGeometry>
        </mxCell>
        <mxCell id="hx0ZOnVBugZYrfQW6F_9-1" value="Actor" style="shape=umlActor;verticalLabelPosition=bottom;verticalAlign=top;html=1;outlineConnect=0;" vertex="1" parent="1">
          <mxGeometry x="70" y="160" width="30" height="60" as="geometry" />
        </mxCell>
        <mxCell id="hx0ZOnVBugZYrfQW6F_9-2" value="Almacén" style="swimlane;" vertex="1" parent="1">
          <mxGeometry x="194" y="80" width="386" height="530" as="geometry" />
        </mxCell>
        <mxCell id="hx0ZOnVBugZYrfQW6F_9-33" style="edgeStyle=orthogonalEdgeStyle;rounded=0;orthogonalLoop=1;jettySize=auto;html=1;exitX=0.5;exitY=1;exitDx=0;exitDy=0;entryX=0.5;entryY=0;entryDx=0;entryDy=0;" edge="1" parent="hx0ZOnVBugZYrfQW6F_9-2" target="hx0ZOnVBugZYrfQW6F_9-9">
          <mxGeometry relative="1" as="geometry">
            <mxPoint x="137.50000000000023" y="80" as="sourcePoint" />
          </mxGeometry>
        </mxCell>
        <mxCell id="hx0ZOnVBugZYrfQW6F_9-5" value="Idioma" style="ellipse;whiteSpace=wrap;html=1;" vertex="1" parent="hx0ZOnVBugZYrfQW6F_9-2">
          <mxGeometry x="76" y="40" width="116" height="40" as="geometry" />
        </mxCell>
        <mxCell id="hx0ZOnVBugZYrfQW6F_9-7" value="" style="ellipse;whiteSpace=wrap;html=1;" vertex="1" parent="hx0ZOnVBugZYrfQW6F_9-2">
          <mxGeometry x="87.5" y="110" width="100" height="40" as="geometry" />
        </mxCell>
        <mxCell id="hx0ZOnVBugZYrfQW6F_9-8" value="Escanea" style="text;html=1;strokeColor=none;fillColor=none;align=center;verticalAlign=middle;whiteSpace=wrap;rounded=0;" vertex="1" parent="hx0ZOnVBugZYrfQW6F_9-2">
          <mxGeometry x="122.5" y="120" width="40" height="20" as="geometry" />
        </mxCell>
        <mxCell id="hx0ZOnVBugZYrfQW6F_9-9" value="" style="ellipse;whiteSpace=wrap;html=1;" vertex="1" parent="hx0ZOnVBugZYrfQW6F_9-2">
          <mxGeometry x="91" y="170" width="93" height="50" as="geometry" />
        </mxCell>
        <mxCell id="hx0ZOnVBugZYrfQW6F_9-10" value="Buscar" style="text;html=1;strokeColor=none;fillColor=none;align=center;verticalAlign=middle;whiteSpace=wrap;rounded=0;" vertex="1" parent="hx0ZOnVBugZYrfQW6F_9-2">
          <mxGeometry x="117.5" y="190" width="40" height="20" as="geometry" />
        </mxCell>
        <mxCell id="hx0ZOnVBugZYrfQW6F_9-19" style="edgeStyle=orthogonalEdgeStyle;rounded=0;orthogonalLoop=1;jettySize=auto;html=1;entryX=0;entryY=0.5;entryDx=0;entryDy=0;" edge="1" parent="hx0ZOnVBugZYrfQW6F_9-2" source="hx0ZOnVBugZYrfQW6F_9-11" target="hx0ZOnVBugZYrfQW6F_9-14">
          <mxGeometry relative="1" as="geometry" />
        </mxCell>
        <mxCell id="hx0ZOnVBugZYrfQW6F_9-11" value="" style="rhombus;whiteSpace=wrap;html=1;" vertex="1" parent="hx0ZOnVBugZYrfQW6F_9-2">
          <mxGeometry x="102.5" y="230" width="70" height="40" as="geometry" />
        </mxCell>
        <mxCell id="hx0ZOnVBugZYrfQW6F_9-12" value="Existe" style="text;html=1;strokeColor=none;fillColor=none;align=center;verticalAlign=middle;whiteSpace=wrap;rounded=0;" vertex="1" parent="hx0ZOnVBugZYrfQW6F_9-2">
          <mxGeometry x="117.5" y="240" width="40" height="20" as="geometry" />
        </mxCell>
        <mxCell id="hx0ZOnVBugZYrfQW6F_9-14" value="" style="rounded=0;whiteSpace=wrap;html=1;" vertex="1" parent="hx0ZOnVBugZYrfQW6F_9-2">
          <mxGeometry x="224.5" y="235" width="84" height="30" as="geometry" />
        </mxCell>
        <mxCell id="hx0ZOnVBugZYrfQW6F_9-39" style="edgeStyle=orthogonalEdgeStyle;rounded=0;orthogonalLoop=1;jettySize=auto;html=1;entryX=0.5;entryY=0;entryDx=0;entryDy=0;" edge="1" parent="hx0ZOnVBugZYrfQW6F_9-2" source="hx0ZOnVBugZYrfQW6F_9-15" target="hx0ZOnVBugZYrfQW6F_9-35">
          <mxGeometry relative="1" as="geometry" />
        </mxCell>
        <mxCell id="hx0ZOnVBugZYrfQW6F_9-15" value="Registrar" style="text;html=1;strokeColor=none;fillColor=none;align=center;verticalAlign=middle;whiteSpace=wrap;rounded=0;" vertex="1" parent="hx0ZOnVBugZYrfQW6F_9-2">
          <mxGeometry x="252.5" y="240" width="40" height="20" as="geometry" />
        </mxCell>
        <mxCell id="hx0ZOnVBugZYrfQW6F_9-16" value="Si" style="text;html=1;strokeColor=none;fillColor=none;align=center;verticalAlign=middle;whiteSpace=wrap;rounded=0;" vertex="1" parent="hx0ZOnVBugZYrfQW6F_9-2">
          <mxGeometry x="176.5" y="220" width="40" height="20" as="geometry" />
        </mxCell>
        <mxCell id="hx0ZOnVBugZYrfQW6F_9-28" value="No" style="text;html=1;strokeColor=none;fillColor=none;align=center;verticalAlign=middle;whiteSpace=wrap;rounded=0;" vertex="1" parent="hx0ZOnVBugZYrfQW6F_9-2">
          <mxGeometry x="75" y="220" width="40" height="20" as="geometry" />
        </mxCell>
        <mxCell id="hx0ZOnVBugZYrfQW6F_9-34" style="edgeStyle=orthogonalEdgeStyle;rounded=0;orthogonalLoop=1;jettySize=auto;html=1;entryX=1;entryY=0.5;entryDx=0;entryDy=0;" edge="1" parent="hx0ZOnVBugZYrfQW6F_9-2" source="hx0ZOnVBugZYrfQW6F_9-15" target="hx0ZOnVBugZYrfQW6F_9-7">
          <mxGeometry relative="1" as="geometry">
            <mxPoint x="272.5" y="70" as="targetPoint" />
            <Array as="points">
              <mxPoint x="272.5" y="130" />
            </Array>
          </mxGeometry>
        </mxCell>
        <mxCell id="hx0ZOnVBugZYrfQW6F_9-51" style="edgeStyle=orthogonalEdgeStyle;rounded=0;orthogonalLoop=1;jettySize=auto;html=1;entryX=0.5;entryY=0;entryDx=0;entryDy=0;" edge="1" parent="hx0ZOnVBugZYrfQW6F_9-2" source="hx0ZOnVBugZYrfQW6F_9-35" target="hx0ZOnVBugZYrfQW6F_9-44">
          <mxGeometry relative="1" as="geometry" />
        </mxCell>
        <mxCell id="hx0ZOnVBugZYrfQW6F_9-56" style="edgeStyle=orthogonalEdgeStyle;rounded=0;orthogonalLoop=1;jettySize=auto;html=1;exitX=1;exitY=0.5;exitDx=0;exitDy=0;entryX=0.5;entryY=0;entryDx=0;entryDy=0;" edge="1" parent="hx0ZOnVBugZYrfQW6F_9-2" source="hx0ZOnVBugZYrfQW6F_9-35" target="hx0ZOnVBugZYrfQW6F_9-43">
          <mxGeometry relative="1" as="geometry" />
        </mxCell>
        <mxCell id="hx0ZOnVBugZYrfQW6F_9-35" value="" style="ellipse;whiteSpace=wrap;html=1;" vertex="1" parent="hx0ZOnVBugZYrfQW6F_9-2">
          <mxGeometry x="227.5" y="290" width="90" height="40" as="geometry" />
        </mxCell>
        <mxCell id="hx0ZOnVBugZYrfQW6F_9-36" value="Pago" style="text;html=1;strokeColor=none;fillColor=none;align=center;verticalAlign=middle;whiteSpace=wrap;rounded=0;" vertex="1" parent="hx0ZOnVBugZYrfQW6F_9-2">
          <mxGeometry x="252.5" y="300" width="40" height="20" as="geometry" />
        </mxCell>
        <mxCell id="hx0ZOnVBugZYrfQW6F_9-49" style="edgeStyle=orthogonalEdgeStyle;rounded=0;orthogonalLoop=1;jettySize=auto;html=1;exitX=0;exitY=0.5;exitDx=0;exitDy=0;entryX=1;entryY=0.5;entryDx=0;entryDy=0;" edge="1" parent="hx0ZOnVBugZYrfQW6F_9-2" source="hx0ZOnVBugZYrfQW6F_9-42" target="hx0ZOnVBugZYrfQW6F_9-46">
          <mxGeometry relative="1" as="geometry" />
        </mxCell>
        <mxCell id="hx0ZOnVBugZYrfQW6F_9-42" value="" style="rounded=0;whiteSpace=wrap;html=1;" vertex="1" parent="hx0ZOnVBugZYrfQW6F_9-2">
          <mxGeometry x="162.5" y="340" width="75" height="20" as="geometry" />
        </mxCell>
        <mxCell id="hx0ZOnVBugZYrfQW6F_9-43" value="" style="rounded=0;whiteSpace=wrap;html=1;" vertex="1" parent="hx0ZOnVBugZYrfQW6F_9-2">
          <mxGeometry x="302.5" y="340" width="70" height="30" as="geometry" />
        </mxCell>
        <mxCell id="hx0ZOnVBugZYrfQW6F_9-44" value="Efectivo" style="text;html=1;strokeColor=none;fillColor=none;align=center;verticalAlign=middle;whiteSpace=wrap;rounded=0;" vertex="1" parent="hx0ZOnVBugZYrfQW6F_9-2">
          <mxGeometry x="180" y="340" width="40" height="20" as="geometry" />
        </mxCell>
        <mxCell id="hx0ZOnVBugZYrfQW6F_9-59" style="edgeStyle=orthogonalEdgeStyle;rounded=0;orthogonalLoop=1;jettySize=auto;html=1;exitX=0.5;exitY=1;exitDx=0;exitDy=0;" edge="1" parent="hx0ZOnVBugZYrfQW6F_9-2" source="hx0ZOnVBugZYrfQW6F_9-43">
          <mxGeometry relative="1" as="geometry">
            <mxPoint x="212.5" y="390" as="targetPoint" />
            <Array as="points">
              <mxPoint x="337.5" y="390" />
            </Array>
          </mxGeometry>
        </mxCell>
        <mxCell id="hx0ZOnVBugZYrfQW6F_9-45" value="Tarjeta Crédito" style="text;html=1;strokeColor=none;fillColor=none;align=center;verticalAlign=middle;whiteSpace=wrap;rounded=0;" vertex="1" parent="hx0ZOnVBugZYrfQW6F_9-2">
          <mxGeometry x="297.5" y="345" width="80" height="20" as="geometry" />
        </mxCell>
        <mxCell id="hx0ZOnVBugZYrfQW6F_9-58" style="edgeStyle=orthogonalEdgeStyle;rounded=0;orthogonalLoop=1;jettySize=auto;html=1;exitX=0.5;exitY=1;exitDx=0;exitDy=0;" edge="1" parent="hx0ZOnVBugZYrfQW6F_9-2" source="hx0ZOnVBugZYrfQW6F_9-46" target="hx0ZOnVBugZYrfQW6F_9-60">
          <mxGeometry relative="1" as="geometry">
            <mxPoint x="152.5" y="405" as="targetPoint" />
            <Array as="points">
              <mxPoint x="97.5" y="390" />
            </Array>
          </mxGeometry>
        </mxCell>
        <mxCell id="hx0ZOnVBugZYrfQW6F_9-46" value="Billetes" style="ellipse;whiteSpace=wrap;html=1;" vertex="1" parent="hx0ZOnVBugZYrfQW6F_9-2">
          <mxGeometry x="62.5" y="330" width="70" height="40" as="geometry" />
        </mxCell>
        <mxCell id="hx0ZOnVBugZYrfQW6F_9-41" value="" style="endArrow=none;html=1;entryX=0.5;entryY=1;entryDx=0;entryDy=0;exitX=0.5;exitY=0;exitDx=0;exitDy=0;" edge="1" parent="hx0ZOnVBugZYrfQW6F_9-2" source="hx0ZOnVBugZYrfQW6F_9-11" target="hx0ZOnVBugZYrfQW6F_9-9">
          <mxGeometry width="50" height="50" relative="1" as="geometry">
            <mxPoint x="147.5" y="230" as="sourcePoint" />
            <mxPoint x="152.5" y="230" as="targetPoint" />
          </mxGeometry>
        </mxCell>
        <mxCell id="hx0ZOnVBugZYrfQW6F_9-64" style="edgeStyle=orthogonalEdgeStyle;rounded=0;orthogonalLoop=1;jettySize=auto;html=1;exitX=1;exitY=0.5;exitDx=0;exitDy=0;entryX=0.5;entryY=0;entryDx=0;entryDy=0;" edge="1" parent="hx0ZOnVBugZYrfQW6F_9-2" source="hx0ZOnVBugZYrfQW6F_9-60">
          <mxGeometry relative="1" as="geometry">
            <mxPoint x="342.4999999999998" y="450" as="targetPoint" />
          </mxGeometry>
        </mxCell>
        <mxCell id="hx0ZOnVBugZYrfQW6F_9-66" style="edgeStyle=orthogonalEdgeStyle;rounded=0;orthogonalLoop=1;jettySize=auto;html=1;exitX=0;exitY=0.5;exitDx=0;exitDy=0;entryX=0;entryY=0;entryDx=0;entryDy=0;" edge="1" parent="hx0ZOnVBugZYrfQW6F_9-2" source="hx0ZOnVBugZYrfQW6F_9-60" target="hx0ZOnVBugZYrfQW6F_9-35">
          <mxGeometry relative="1" as="geometry">
            <Array as="points">
              <mxPoint x="10" y="430" />
              <mxPoint x="10" y="296" />
            </Array>
          </mxGeometry>
        </mxCell>
        <mxCell id="hx0ZOnVBugZYrfQW6F_9-60" value="Confirmación" style="rhombus;whiteSpace=wrap;html=1;" vertex="1" parent="hx0ZOnVBugZYrfQW6F_9-2">
          <mxGeometry x="172.5" y="390" width="80" height="80" as="geometry" />
        </mxCell>
        <mxCell id="hx0ZOnVBugZYrfQW6F_9-61" value="- Cambio&lt;br&gt;- Recibo" style="shape=parallelogram;perimeter=parallelogramPerimeter;whiteSpace=wrap;html=1;fixedSize=1;" vertex="1" parent="hx0ZOnVBugZYrfQW6F_9-2">
          <mxGeometry x="240" y="450" width="120" height="60" as="geometry" />
        </mxCell>
        <mxCell id="hx0ZOnVBugZYrfQW6F_9-65" value="Si" style="text;html=1;strokeColor=none;fillColor=none;align=center;verticalAlign=middle;whiteSpace=wrap;rounded=0;" vertex="1" parent="hx0ZOnVBugZYrfQW6F_9-2">
          <mxGeometry x="277.5" y="400" width="40" height="20" as="geometry" />
        </mxCell>
        <mxCell id="hx0ZOnVBugZYrfQW6F_9-29" value="" style="rounded=0;whiteSpace=wrap;html=1;" vertex="1" parent="hx0ZOnVBugZYrfQW6F_9-2">
          <mxGeometry x="16" y="240" width="60" height="40" as="geometry" />
        </mxCell>
        <mxCell id="hx0ZOnVBugZYrfQW6F_9-31" style="edgeStyle=orthogonalEdgeStyle;rounded=0;orthogonalLoop=1;jettySize=auto;html=1;entryX=1;entryY=0.25;entryDx=0;entryDy=0;" edge="1" parent="hx0ZOnVBugZYrfQW6F_9-2" source="hx0ZOnVBugZYrfQW6F_9-11" target="hx0ZOnVBugZYrfQW6F_9-29">
          <mxGeometry relative="1" as="geometry">
            <mxPoint x="102.5" y="235" as="targetPoint" />
          </mxGeometry>
        </mxCell>
        <mxCell id="hx0ZOnVBugZYrfQW6F_9-70" value="No" style="text;html=1;strokeColor=none;fillColor=none;align=center;verticalAlign=middle;whiteSpace=wrap;rounded=0;" vertex="1" parent="hx0ZOnVBugZYrfQW6F_9-2">
          <mxGeometry x="47.5" y="400" width="40" height="20" as="geometry" />
        </mxCell>
        <mxCell id="hx0ZOnVBugZYrfQW6F_9-6" value="Llegar al almacén" style="text;html=1;strokeColor=none;fillColor=none;align=center;verticalAlign=middle;whiteSpace=wrap;rounded=0;" vertex="1" parent="1">
          <mxGeometry x="130" y="150" width="40" height="20" as="geometry" />
        </mxCell>
        <mxCell id="hx0ZOnVBugZYrfQW6F_9-30" value="Bloquea" style="text;html=1;strokeColor=none;fillColor=none;align=center;verticalAlign=middle;whiteSpace=wrap;rounded=0;" vertex="1" parent="1">
          <mxGeometry x="218.5" y="335" width="40" height="20" as="geometry" />
        </mxCell>
      </root>
    </mxGraphModel>
  </diagram>
</mxfile>
